<svg id="svg" xmlns="http://www.w3.org/2000/svg" xmlns:xlink="http://www.w3.org/1999/xlink" width="400" height="405.15021459227466" viewBox="0, 0, 400,405.15021459227466"><g id="svgg"><path id="path0" d="M217.800 24.964 C 203.989 28.119,194.349 36.602,189.234 50.100 L 188.817 51.200 181.287 51.200 C 169.112 51.200,167.552 52.497,167.200 62.915 L 167.000 68.831 146.791 68.809 C 121.461 68.781,120.424 68.960,118.000 73.803 L 117.000 75.800 116.894 143.300 L 116.789 210.800 90.623 210.800 C 63.060 210.800,60.565 210.929,55.163 212.636 C 48.162 214.847,42.029 221.269,39.345 229.200 C 38.127 232.801,37.982 361.358,39.191 366.180 C 41.397 374.980,47.173 381.111,56.413 384.462 L 59.000 385.400 123.800 385.512 C 168.150 385.588,189.473 385.489,191.367 385.198 C 200.454 383.800,207.989 377.708,211.513 368.912 L 212.600 366.200 212.800 339.000 L 213.000 311.800 269.600 311.600 L 326.200 311.400 327.800 310.543 C 329.804 309.469,330.543 308.655,331.569 306.393 C 332.381 304.604,332.382 304.360,332.387 190.200 L 332.392 75.800 331.426 73.726 C 329.210 68.965,328.248 68.800,302.745 68.800 L 282.400 68.800 282.391 63.300 C 282.374 52.815,280.432 51.206,267.790 51.202 L 260.581 51.200 259.465 48.200 C 253.457 32.045,234.088 21.242,217.800 24.964 M229.600 42.484 C 235.541 43.879,239.485 47.689,243.255 55.672 C 243.429 56.042,243.691 57.572,243.836 59.072 C 244.219 63.033,245.329 65.373,247.558 66.921 L 249.400 68.200 256.900 68.331 L 264.400 68.462 264.400 79.031 L 264.400 89.600 224.100 89.601 L 183.800 89.601 183.927 84.101 C 183.997 81.075,184.177 76.350,184.327 73.600 L 184.600 68.600 192.036 68.400 C 202.342 68.123,203.479 67.329,204.635 59.600 C 206.152 49.450,212.091 43.513,222.400 41.839 C 223.707 41.626,227.331 41.951,229.600 42.484 M167.209 93.300 C 167.219 101.123,167.552 102.421,170.131 104.685 C 172.671 106.916,170.749 106.846,225.629 106.718 L 276.659 106.600 278.326 105.497 C 281.804 103.195,282.183 102.080,282.325 93.731 L 282.449 86.400 298.825 86.400 L 315.200 86.400 315.200 190.200 L 315.200 294.000 264.600 294.060 C 236.770 294.093,213.775 294.138,213.500 294.160 C 213.105 294.192,212.958 287.457,212.800 262.200 L 212.600 230.200 211.698 227.832 C 208.422 219.230,202.343 213.962,192.748 211.409 L 188.895 210.384 161.648 210.492 L 134.400 210.600 134.400 148.500 L 134.400 86.400 150.800 86.400 L 167.200 86.400 167.209 93.300 M191.041 228.880 C 192.792 229.839,194.687 232.123,195.202 233.893 C 196.026 236.731,195.561 362.306,194.720 363.841 C 192.040 368.734,196.799 368.432,124.400 368.307 L 61.800 368.200 60.123 367.304 C 55.260 364.704,55.565 369.553,55.691 297.000 L 55.800 234.200 56.674 232.568 C 57.785 230.490,59.928 228.852,62.101 228.419 C 65.783 227.685,189.667 228.127,191.041 228.880 " stroke="none" fill="#040404" fill-rule="evenodd"></path><path id="path1" d="M216.657 23.800 C 216.327 24.130,215.594 24.400,215.029 24.400 C 214.463 24.400,214.000 24.580,214.000 24.800 C 214.000 25.020,213.190 25.200,212.200 25.200 C 211.210 25.200,210.400 25.380,210.400 25.600 C 210.400 25.820,210.040 26.000,209.600 26.000 C 209.160 26.000,208.800 26.180,208.800 26.400 C 208.800 26.620,208.440 26.800,208.000 26.800 C 207.560 26.800,207.200 26.980,207.200 27.200 C 207.200 27.420,206.840 27.600,206.400 27.600 C 205.960 27.600,205.600 27.780,205.600 28.000 C 205.600 28.220,205.234 28.400,204.787 28.400 C 204.341 28.400,203.871 28.670,203.745 29.000 C 203.618 29.330,203.250 29.600,202.928 29.600 C 201.534 29.600,191.600 40.339,191.600 41.846 C 191.600 42.151,191.420 42.400,191.200 42.400 C 190.980 42.400,190.800 42.760,190.800 43.200 C 190.800 43.640,190.620 44.000,190.400 44.000 C 190.180 44.000,190.000 44.360,190.000 44.800 C 190.000 45.240,189.820 45.600,189.600 45.600 C 189.380 45.600,189.200 46.164,189.200 46.853 C 189.200 49.617,188.022 49.999,179.500 50.000 C 174.767 50.000,172.000 50.148,172.000 50.400 C 172.000 50.620,171.640 50.800,171.200 50.800 C 170.760 50.800,170.400 50.980,170.400 51.200 C 170.400 51.420,170.068 51.600,169.662 51.600 C 168.770 51.600,167.600 52.809,167.600 53.731 C 167.600 54.099,167.420 54.400,167.200 54.400 C 166.980 54.400,166.800 54.760,166.800 55.200 C 166.800 55.640,166.620 56.000,166.400 56.000 C 166.151 56.000,166.000 58.267,166.000 62.000 L 166.000 68.000 143.600 68.000 C 128.933 68.000,121.200 68.138,121.200 68.400 C 121.200 68.620,120.883 68.800,120.495 68.800 C 120.107 68.800,119.432 69.280,118.995 69.866 C 118.558 70.452,118.018 71.127,117.795 71.366 C 115.879 73.418,116.000 68.632,116.000 142.186 C 116.000 187.395,116.135 210.400,116.400 210.400 C 116.665 210.400,116.800 187.750,116.800 143.250 C 116.800 69.683,116.658 74.075,119.116 71.455 C 119.712 70.819,121.100 69.873,122.200 69.353 L 124.200 68.408 145.500 68.404 L 166.800 68.400 166.800 63.026 C 166.800 52.737,169.360 50.600,181.683 50.600 L 188.765 50.600 189.802 47.759 C 193.222 38.384,202.950 29.112,212.613 26.016 C 231.430 19.988,249.920 27.976,258.873 46.000 C 260.441 49.156,260.764 49.593,260.781 48.579 C 260.801 47.273,258.972 43.200,258.364 43.200 C 258.164 43.200,258.000 42.840,258.000 42.400 C 258.000 41.960,257.820 41.600,257.600 41.600 C 257.380 41.600,257.200 41.222,257.200 40.760 C 257.200 40.299,256.660 39.417,256.000 38.800 C 255.340 38.183,254.800 37.485,254.800 37.248 C 254.800 36.517,248.461 30.400,247.704 30.400 C 247.311 30.400,246.652 29.950,246.239 29.400 C 245.826 28.850,245.243 28.400,244.944 28.400 C 244.645 28.400,244.400 28.220,244.400 28.000 C 244.400 27.780,244.051 27.600,243.624 27.600 C 243.197 27.600,242.736 27.420,242.600 27.200 C 242.464 26.980,242.003 26.800,241.576 26.800 C 241.149 26.800,240.800 26.620,240.800 26.400 C 240.800 26.180,240.260 26.000,239.600 26.000 C 238.940 26.000,238.400 25.820,238.400 25.600 C 238.400 25.380,237.871 25.200,237.224 25.200 C 236.577 25.200,235.936 25.020,235.800 24.800 C 235.664 24.580,234.921 24.400,234.148 24.400 C 233.375 24.400,232.473 24.130,232.143 23.800 C 231.259 22.916,217.541 22.916,216.657 23.800 M222.000 42.400 C 221.583 42.669,222.317 42.788,224.400 42.788 C 226.483 42.788,227.217 42.669,226.800 42.400 C 226.470 42.187,225.390 42.012,224.400 42.012 C 223.410 42.012,222.330 42.187,222.000 42.400 M218.600 42.882 C 210.851 45.449,205.833 51.807,204.810 60.356 C 204.328 64.383,203.590 65.781,201.039 67.500 L 199.110 68.800 191.955 68.800 L 184.800 68.800 184.757 73.500 C 184.733 76.085,184.598 80.675,184.457 83.701 L 184.200 89.201 224.124 89.201 C 250.637 89.200,263.964 89.066,263.800 88.800 C 263.638 88.538,250.063 88.400,224.376 88.400 L 185.200 88.400 185.200 78.800 L 185.200 69.200 193.122 69.200 L 201.044 69.200 202.522 67.846 C 203.335 67.101,204.000 66.291,204.000 66.046 C 204.000 65.801,204.180 65.600,204.400 65.600 C 204.620 65.600,204.800 65.240,204.800 64.800 C 204.800 64.360,204.980 64.000,205.200 64.000 C 205.435 64.000,205.600 62.614,205.600 60.643 C 205.600 58.028,205.733 57.235,206.200 57.055 C 206.530 56.929,206.800 56.380,206.800 55.836 C 206.800 55.292,206.980 54.736,207.200 54.600 C 207.420 54.464,207.600 54.003,207.600 53.576 C 207.600 53.149,207.780 52.800,208.000 52.800 C 208.220 52.800,208.400 52.526,208.400 52.190 C 208.400 51.176,214.639 45.200,215.697 45.200 C 216.207 45.200,216.883 44.840,217.200 44.400 C 217.622 43.814,218.235 43.600,219.488 43.600 C 220.743 43.600,221.200 43.440,221.200 43.000 C 221.200 42.329,220.384 42.292,218.600 42.882 M227.878 42.656 C 227.393 43.140,228.049 43.600,229.224 43.600 C 229.871 43.600,230.400 43.780,230.400 44.000 C 230.400 44.220,230.760 44.400,231.200 44.400 C 231.640 44.400,232.000 44.580,232.000 44.800 C 232.000 45.020,232.360 45.200,232.800 45.200 C 233.240 45.200,233.600 45.380,233.600 45.600 C 233.600 45.820,233.825 46.004,234.100 46.009 C 234.375 46.013,235.140 46.666,235.800 47.459 C 236.460 48.251,237.765 49.683,238.700 50.639 C 239.635 51.596,240.400 52.542,240.400 52.740 C 240.400 52.939,240.670 53.326,241.000 53.600 C 241.330 53.874,241.600 54.436,241.600 54.849 C 241.600 55.262,241.780 55.600,242.000 55.600 C 242.220 55.600,242.400 56.140,242.400 56.800 C 242.400 57.460,242.580 58.000,242.800 58.000 C 244.235 58.000,241.306 51.291,238.521 48.200 C 236.334 45.772,230.968 42.768,228.167 42.404 C 228.148 42.402,228.018 42.515,227.878 42.656 M268.000 50.375 C 277.414 50.668,281.235 52.408,282.210 56.847 C 282.544 58.366,283.200 58.327,283.200 56.787 C 283.200 56.079,282.951 55.479,282.600 55.345 C 282.270 55.218,282.000 54.851,282.000 54.529 C 282.000 54.206,281.775 53.715,281.500 53.437 C 281.225 53.159,280.642 52.452,280.205 51.866 C 279.686 51.170,279.035 50.800,278.329 50.800 C 277.734 50.800,277.136 50.620,277.000 50.400 C 276.846 50.151,273.709 50.027,268.676 50.073 L 260.600 50.145 268.000 50.375 M243.252 61.700 C 243.221 63.535,243.363 64.800,243.600 64.800 C 243.820 64.800,244.000 65.105,244.000 65.478 C 244.000 66.394,245.974 68.400,246.875 68.400 C 247.274 68.400,247.600 68.580,247.600 68.800 C 247.600 69.056,250.578 69.170,255.900 69.117 L 264.200 69.035 256.764 68.817 C 247.091 68.535,244.368 66.897,243.600 60.903 L 243.305 58.600 243.252 61.700 M304.400 68.392 C 328.691 68.624,327.127 68.436,330.343 71.503 C 332.959 73.999,332.796 66.100,332.796 190.200 C 332.796 314.009,332.956 306.244,330.339 308.861 C 326.930 312.270,332.568 311.981,269.300 311.991 L 213.200 312.000 213.200 338.502 L 213.200 365.003 212.247 367.631 C 208.461 378.070,201.084 384.283,190.877 385.629 C 188.873 385.894,165.346 385.994,123.400 385.918 L 59.000 385.800 55.633 384.625 C 49.190 382.376,44.137 378.043,41.128 372.186 C 37.710 365.534,37.949 371.433,38.082 297.000 L 38.200 231.000 39.527 227.705 C 43.302 218.333,51.117 212.071,60.600 210.818 L 63.000 210.501 59.900 210.451 C 58.066 210.421,56.800 210.563,56.800 210.800 C 56.800 211.020,56.080 211.200,55.200 211.200 C 54.320 211.200,53.600 211.380,53.600 211.600 C 53.600 211.820,53.336 212.000,53.014 212.000 C 52.211 212.000,48.746 213.960,47.953 214.863 C 47.597 215.269,47.026 215.600,46.685 215.600 C 45.798 215.600,42.400 219.114,42.400 220.032 C 42.400 220.454,42.220 220.800,42.000 220.800 C 41.780 220.800,41.600 221.089,41.600 221.442 C 41.600 221.796,41.150 222.439,40.600 222.871 C 39.940 223.390,39.600 224.056,39.600 224.829 C 39.600 225.473,39.420 226.000,39.200 226.000 C 38.980 226.000,38.800 226.360,38.800 226.800 C 38.800 227.240,38.620 227.600,38.400 227.600 C 38.180 227.600,38.000 228.590,38.000 229.800 C 38.000 231.010,37.820 232.000,37.600 232.000 C 37.335 232.000,37.200 254.467,37.200 298.600 C 37.200 342.733,37.335 365.200,37.600 365.200 C 37.820 365.200,38.000 365.920,38.000 366.800 C 38.000 367.680,38.180 368.400,38.400 368.400 C 38.620 368.400,38.800 368.815,38.800 369.321 C 38.800 370.414,40.712 374.400,41.236 374.400 C 41.436 374.400,41.600 374.768,41.600 375.219 C 41.600 376.122,47.779 382.400,48.668 382.400 C 48.961 382.400,49.200 382.580,49.200 382.800 C 49.200 383.020,49.560 383.200,50.000 383.200 C 50.440 383.200,50.800 383.380,50.800 383.600 C 50.800 383.820,51.250 384.000,51.800 384.000 C 52.350 384.000,52.800 384.180,52.800 384.400 C 52.800 384.620,53.160 384.800,53.600 384.800 C 54.040 384.800,54.400 384.980,54.400 385.200 C 54.400 385.420,54.940 385.600,55.600 385.600 C 56.260 385.600,56.800 385.780,56.800 386.000 C 56.800 386.554,194.258 386.554,194.600 386.000 C 194.736 385.780,195.197 385.600,195.624 385.600 C 196.051 385.600,196.400 385.420,196.400 385.200 C 196.400 384.980,196.940 384.800,197.600 384.800 C 198.260 384.800,198.800 384.620,198.800 384.400 C 198.800 384.180,199.149 384.000,199.576 384.000 C 200.003 384.000,200.464 383.820,200.600 383.600 C 200.736 383.380,201.197 383.200,201.624 383.200 C 202.051 383.200,202.400 383.020,202.400 382.800 C 202.400 382.580,202.760 382.400,203.200 382.400 C 203.640 382.400,204.000 382.235,204.000 382.034 C 204.000 381.682,204.555 381.115,208.300 377.640 C 209.249 376.760,210.000 375.695,210.000 375.231 C 210.000 374.774,210.180 374.400,210.400 374.400 C 210.620 374.400,210.800 374.059,210.800 373.643 C 210.800 373.226,211.070 372.782,211.400 372.655 C 211.730 372.529,212.000 371.980,212.000 371.436 C 212.000 370.892,212.180 370.336,212.400 370.200 C 212.620 370.064,212.800 369.423,212.800 368.776 C 212.800 368.129,212.980 367.600,213.200 367.600 C 213.420 367.600,213.600 367.060,213.600 366.400 C 213.600 365.740,213.780 365.200,214.000 365.200 C 214.263 365.200,214.400 356.200,214.400 339.000 L 214.400 312.800 271.000 312.800 C 308.467 312.800,327.600 312.665,327.600 312.400 C 327.600 312.180,327.894 312.000,328.253 312.000 C 329.324 312.000,332.800 308.195,332.800 307.023 C 332.800 306.460,332.980 306.000,333.200 306.000 C 333.466 306.000,333.600 267.067,333.600 190.000 C 333.600 112.933,333.466 74.000,333.200 74.000 C 332.980 74.000,332.800 73.640,332.800 73.200 C 332.800 72.760,332.620 72.400,332.400 72.400 C 332.180 72.400,332.000 72.068,332.000 71.662 C 332.000 70.770,330.791 69.600,329.869 69.600 C 329.501 69.600,329.200 69.420,329.200 69.200 C 329.200 68.980,328.840 68.800,328.400 68.800 C 327.960 68.800,327.600 68.620,327.600 68.400 C 327.600 68.137,319.894 68.031,305.100 68.092 L 282.600 68.183 304.400 68.392 M134.800 148.600 C 134.800 189.533,134.935 210.400,135.200 210.400 C 135.465 210.400,135.600 189.600,135.600 148.800 L 135.600 87.200 150.800 87.200 L 166.000 87.200 166.000 94.376 C 166.000 98.729,166.157 101.650,166.400 101.800 C 166.620 101.936,166.800 102.397,166.800 102.824 C 166.800 103.251,166.980 103.600,167.200 103.600 C 167.420 103.600,167.600 103.883,167.600 104.229 C 167.600 105.027,168.560 106.000,169.348 106.000 C 169.681 106.000,170.064 106.180,170.200 106.400 C 170.336 106.620,170.777 106.800,171.181 106.800 C 171.584 106.800,172.018 107.070,172.145 107.400 C 172.348 107.929,178.591 108.000,225.000 108.000 C 271.409 108.000,277.652 107.929,277.855 107.400 C 277.982 107.070,278.335 106.800,278.641 106.800 C 280.167 106.800,283.252 102.889,283.124 101.116 L 283.000 99.400 282.080 101.395 C 280.957 103.833,279.892 105.013,277.800 106.139 L 276.200 107.000 225.623 107.106 C 168.135 107.227,172.176 107.448,169.090 104.015 C 166.906 101.586,166.800 101.084,166.800 93.150 L 166.800 86.800 150.800 86.800 L 134.800 86.800 134.800 148.600 M298.499 87.100 L 314.398 87.209 314.500 190.505 L 314.602 293.800 314.701 190.300 L 314.800 86.800 298.700 86.895 L 282.600 86.991 298.499 87.100 M193.600 211.163 C 202.813 213.696,208.833 219.343,212.186 228.598 L 213.200 231.397 213.200 262.498 C 213.200 289.878,213.272 293.600,213.800 293.600 C 214.328 293.600,214.400 289.911,214.400 262.800 C 214.400 242.533,214.263 232.000,214.000 232.000 C 213.780 232.000,213.600 231.190,213.600 230.200 C 213.600 229.210,213.420 228.400,213.200 228.400 C 212.980 228.400,212.800 227.860,212.800 227.200 C 212.800 226.540,212.640 226.000,212.443 226.000 C 212.247 226.000,211.974 225.550,211.836 225.000 C 211.698 224.450,211.408 224.000,211.192 224.000 C 210.977 224.000,210.800 223.640,210.800 223.200 C 210.800 222.760,210.620 222.400,210.400 222.400 C 210.180 222.400,210.000 222.040,210.000 221.600 C 210.000 221.160,209.820 220.800,209.600 220.800 C 209.380 220.800,209.200 220.470,209.200 220.067 C 209.200 219.207,204.683 214.800,203.802 214.800 C 203.471 214.800,203.200 214.633,203.200 214.429 C 203.200 214.002,200.941 212.800,200.139 212.800 C 199.842 212.800,199.600 212.620,199.600 212.400 C 199.600 212.180,199.240 212.000,198.800 212.000 C 198.360 212.000,198.000 211.820,198.000 211.600 C 198.000 211.380,197.460 211.200,196.800 211.200 C 196.140 211.200,195.600 211.020,195.600 210.800 C 195.600 210.577,194.583 210.411,193.300 210.424 L 191.000 210.448 193.600 211.163 M60.858 229.228 C 57.947 230.394,54.631 235.600,56.800 235.600 C 57.020 235.600,57.200 235.129,57.200 234.553 C 57.200 233.371,59.885 230.400,60.953 230.400 C 61.309 230.400,61.600 230.220,61.600 230.000 C 61.600 229.780,61.960 229.600,62.400 229.600 C 62.840 229.600,63.200 229.420,63.200 229.200 C 63.200 228.709,62.121 228.722,60.858 229.228 M188.400 229.150 C 188.400 229.398,188.673 229.600,189.007 229.600 C 189.788 229.600,194.400 234.225,194.400 235.007 C 194.400 235.333,194.603 235.600,194.850 235.600 C 195.425 235.600,195.009 233.378,194.202 232.148 C 192.885 230.137,188.400 227.820,188.400 229.150 M56.195 298.200 C 56.195 332.520,56.242 346.501,56.300 329.269 C 56.358 312.036,56.358 283.956,56.300 266.869 C 56.242 249.781,56.195 263.880,56.195 298.200 M56.400 361.865 C 56.400 363.243,58.437 366.002,60.117 366.901 L 61.800 367.800 125.600 367.800 L 189.400 367.800 191.077 366.904 C 193.521 365.597,196.425 361.200,194.843 361.200 C 194.600 361.200,194.400 361.650,194.400 362.200 C 194.400 362.750,194.242 363.200,194.048 363.200 C 193.855 363.200,192.955 363.920,192.048 364.800 C 191.141 365.680,190.129 366.400,189.800 366.400 C 189.470 366.400,189.200 366.580,189.200 366.800 C 189.200 367.065,167.800 367.200,125.800 367.200 C 83.800 367.200,62.400 367.065,62.400 366.800 C 62.400 366.580,62.132 366.400,61.805 366.400 C 60.650 366.400,57.200 363.133,57.200 362.040 C 57.200 361.578,57.020 361.200,56.800 361.200 C 56.580 361.200,56.400 361.499,56.400 361.865 " stroke="none" fill="#cdcdcd" fill-rule="evenodd"></path><path id="path2" d="M198.187 35.300 L 195.800 37.800 198.300 35.413 C 200.622 33.195,200.983 32.800,200.687 32.800 C 200.626 32.800,199.501 33.925,198.187 35.300 M209.578 48.300 L 208.200 49.800 209.700 48.422 C 211.096 47.138,211.384 46.800,211.078 46.800 C 211.012 46.800,210.337 47.475,209.578 48.300 M182.000 50.800 L 175.000 51.029 181.876 51.114 C 186.124 51.167,188.847 51.047,189.000 50.800 C 189.136 50.580,189.192 50.439,189.124 50.486 C 189.056 50.533,185.850 50.674,182.000 50.800 M263.680 51.098 C 265.594 51.171,268.834 51.171,270.880 51.098 C 272.926 51.026,271.360 50.966,267.400 50.965 C 263.440 50.965,261.766 51.024,263.680 51.098 M166.798 63.481 C 166.689 66.606,166.740 69.022,166.912 68.849 C 167.084 68.677,167.173 66.120,167.111 63.168 L 166.997 57.800 166.798 63.481 M184.565 68.948 C 184.449 69.249,184.421 70.464,184.503 71.648 L 184.652 73.800 184.726 71.309 L 184.800 68.819 191.700 68.699 L 198.600 68.580 191.687 68.490 C 186.143 68.418,184.733 68.508,184.565 68.948 M184.131 78.600 C 184.133 80.140,184.205 80.721,184.292 79.891 C 184.379 79.061,184.377 77.801,184.289 77.091 C 184.200 76.381,184.129 77.060,184.131 78.600 M332.597 190.400 C 332.597 252.990,332.643 278.595,332.700 247.300 C 332.757 216.005,332.757 164.795,332.700 133.500 C 332.643 102.205,332.597 127.810,332.597 190.400 M166.965 93.200 C 166.965 97.050,167.025 98.625,167.098 96.700 C 167.171 94.775,167.171 91.625,167.098 89.700 C 167.025 87.775,166.965 89.350,166.965 93.200 M314.997 190.200 C 314.997 247.400,315.043 270.859,315.100 242.332 C 315.157 213.805,315.157 167.005,315.100 138.332 C 315.043 109.659,314.997 133.000,314.997 190.200 M183.600 89.300 C 183.600 89.465,201.825 89.557,224.100 89.505 C 246.375 89.453,258.120 89.363,250.200 89.306 C 212.409 89.031,183.600 89.028,183.600 89.300 M199.669 107.100 C 213.237 107.158,235.557 107.158,249.269 107.100 C 262.981 107.042,251.880 106.994,224.600 106.994 C 197.320 106.994,186.101 107.042,199.669 107.100 M61.300 211.076 C 61.685 211.176,62.315 211.176,62.700 211.076 C 63.085 210.975,62.770 210.893,62.000 210.893 C 61.230 210.893,60.915 210.975,61.300 211.076 M43.775 220.500 L 42.600 221.800 43.900 220.625 C 45.112 219.530,45.384 219.200,45.075 219.200 C 45.006 219.200,44.421 219.785,43.775 220.500 M85.800 228.296 C 145.180 228.570,188.306 228.571,188.138 228.300 C 188.036 228.135,159.928 228.043,125.676 228.097 C 91.424 228.150,73.480 228.240,85.800 228.296 M38.493 232.400 C 38.493 233.170,38.575 233.485,38.676 233.100 C 38.776 232.715,38.776 232.085,38.676 231.700 C 38.575 231.315,38.493 231.630,38.493 232.400 M212.996 263.767 C 213.000 290.418,213.073 294.153,213.600 294.297 C 214.042 294.418,214.069 294.368,213.703 294.108 C 213.315 293.834,213.182 287.083,213.099 263.578 L 212.992 233.400 212.996 263.767 M195.395 297.600 C 195.395 332.470,195.442 346.735,195.500 329.300 C 195.558 311.865,195.558 283.335,195.500 265.900 C 195.442 248.465,195.395 262.730,195.395 297.600 M38.195 298.400 C 38.195 333.050,38.242 347.225,38.300 329.900 C 38.358 312.575,38.358 284.225,38.300 266.900 C 38.242 249.575,38.195 263.750,38.195 298.400 M55.795 298.200 C 55.795 332.740,55.842 346.811,55.900 329.469 C 55.958 312.126,55.958 283.866,55.900 266.669 C 55.842 249.471,55.795 263.660,55.795 298.200 M212.988 337.400 C 212.988 351.480,213.039 357.182,213.100 350.071 C 213.161 342.960,213.161 331.440,213.100 324.471 C 213.038 317.502,212.988 323.320,212.988 337.400 M94.469 368.300 C 111.556 368.358,139.636 368.358,156.869 368.300 C 174.101 368.242,160.120 368.195,125.800 368.195 C 91.480 368.195,77.381 368.242,94.469 368.300 M45.583 378.100 C 46.564 379.145,47.419 380.000,47.483 380.000 C 47.784 380.000,47.466 379.641,45.700 377.983 L 43.800 376.200 45.583 378.100 M94.469 385.900 C 111.556 385.958,139.636 385.958,156.869 385.900 C 174.101 385.842,160.120 385.795,125.800 385.795 C 91.480 385.795,77.381 385.842,94.469 385.900 " stroke="none" fill="#454545" fill-rule="evenodd"></path><path id="path3" d="M260.502 50.000 C 260.639 50.502,261.766 50.603,267.433 50.616 L 274.200 50.631 267.617 50.505 C 263.006 50.417,260.930 50.233,260.687 49.890 C 260.436 49.536,260.384 49.567,260.502 50.000 M178.719 50.698 C 180.544 50.772,183.424 50.772,185.119 50.697 C 186.814 50.622,185.320 50.561,181.800 50.562 C 178.280 50.562,176.894 50.624,178.719 50.698 M184.520 77.600 C 184.520 78.810,184.595 79.305,184.687 78.700 C 184.778 78.095,184.778 77.105,184.687 76.500 C 184.595 75.895,184.520 76.390,184.520 77.600 M184.124 86.600 C 184.126 87.920,184.201 88.412,184.290 87.693 C 184.379 86.974,184.377 85.894,184.286 85.293 C 184.195 84.692,184.122 85.280,184.124 86.600 M134.595 148.600 C 134.595 182.700,134.642 196.709,134.700 179.731 C 134.758 162.754,134.758 134.854,134.700 117.731 C 134.642 100.609,134.595 114.500,134.595 148.600 M76.329 210.700 C 83.880 210.761,96.120 210.761,103.529 210.700 C 110.938 210.639,104.760 210.589,89.800 210.589 C 74.840 210.589,68.778 210.639,76.329 210.700 M45.586 218.300 L 43.400 220.600 45.700 218.414 C 46.965 217.211,48.000 216.176,48.000 216.114 C 48.000 215.817,47.618 216.163,45.586 218.300 M94.531 228.700 C 111.654 228.758,139.554 228.758,156.531 228.700 C 173.509 228.642,159.500 228.595,125.400 228.595 C 91.300 228.595,77.409 228.642,94.531 228.700 M238.500 293.900 C 252.525 293.958,275.475 293.958,289.500 293.900 C 303.525 293.842,292.050 293.794,264.000 293.794 C 235.950 293.794,224.475 293.842,238.500 293.900 M241.500 311.900 C 256.955 311.958,282.245 311.958,297.700 311.900 C 313.155 311.842,300.510 311.795,269.600 311.795 C 238.690 311.795,226.045 311.842,241.500 311.900 " stroke="none" fill="#848484" fill-rule="evenodd"></path><path id="path4" d="M282.672 59.226 C 282.507 59.570,282.423 61.820,282.486 64.226 L 282.600 68.600 303.200 68.605 L 323.800 68.611 303.400 68.503 L 283.000 68.395 283.128 65.290 C 283.292 61.294,283.074 58.391,282.672 59.226 M135.728 68.700 C 141.408 68.762,150.588 68.762,156.128 68.700 C 161.668 68.637,157.020 68.586,145.800 68.586 C 134.580 68.586,130.048 68.637,135.728 68.700 M256.900 68.694 L 263.800 68.817 263.686 78.419 C 263.615 84.403,263.725 88.281,263.978 88.711 C 264.258 89.186,264.355 86.177,264.292 79.000 L 264.200 68.600 257.100 68.586 L 249.999 68.571 256.900 68.694 M184.109 82.800 C 184.109 83.790,184.187 84.195,184.282 83.700 C 184.378 83.205,184.378 82.395,184.282 81.900 C 184.187 81.405,184.109 81.810,184.109 82.800 M142.700 86.700 C 147.155 86.764,154.445 86.764,158.900 86.700 C 163.355 86.635,159.710 86.582,150.800 86.582 C 141.890 86.582,138.245 86.635,142.700 86.700 M282.667 86.667 C 282.213 87.121,282.357 98.726,282.820 99.012 C 283.108 99.190,283.202 97.318,283.120 93.040 L 283.000 86.808 299.000 86.699 L 315.000 86.591 298.967 86.495 C 290.148 86.443,282.813 86.520,282.667 86.667 " stroke="none" fill="#747474" fill-rule="evenodd"></path></g></svg>